# xmcd
#
# Track frame offsets:
#	150
#	20115
#	39640
#	58055
#	77880
#	95979
#	110667
#	132681
#	149937
#	167393
#	187784
#	207100
#
# Disc length: 2966 seconds
#
# Revision: 0
# Processed by: cddbd v1.5.2PL0 Copyright (c) Steve Scherf et al.
# Submitted via: dBpowerAMP V4.0
#
DISCID=b80b940c
DTITLE=Adriana Antoni - Cu un sarut
DYEAR=2006
DGENRE=Blues
TTITLE0=Cu un sarut
TTITLE1=Vreau sa ma rogi in genunchi
TTITLE2=Doua inimi
TTITLE3=As vrea sa simt inima ta
TTITLE4=Spune-mi iubire
TTITLE5=Facem chef se stie
TTITLE6=Mie dor de tine
TTITLE7=Numai iubirea invinge orice suparare
TTITLE8=N-am sa mai pot doar sa te astept
TTITLE9=Sufletul te-a ales pe tine
TTITLE10=Doua inimi
TTITLE11=Cu un sarut - live -
EXTD=
EXTT0=
EXTT1=
EXTT2=
EXTT3=
EXTT4=
EXTT5=
EXTT6=
EXTT7=
EXTT8=
EXTT9=
EXTT10=
EXTT11=
PLAYORDER=
